<svg height="56" viewBox="0 0 56 56" width="56" xmlns="http://www.w3.org/2000/svg"><path d="m11.9102 47.3594c1.1015 0 1.9922-.8438 1.9922-1.9453v-16.5c-.0704-.3047-.1173-.6094-.1173-.9141 0-.3281.0469-.6328.1173-.9141v-16.4765c0-1.1016-.8907-1.9688-1.9922-1.9688-1.1016 0-2.0157.8672-2.0157 1.9688v34.8047c0 1.1015.9141 1.9453 2.0157 1.9453zm30.8203-.9375c1.8515 0 3.375-1.4063 3.375-4.0313v-28.7812c0-2.625-1.5235-4.0313-3.375-4.0313-.9376 0-1.7344.3047-2.6954.8672l-23.8827 14.0625c-1.2657.75-1.9688 1.6172-2.25 2.5781v1.8282c.2812.9609.9843 1.8281 2.25 2.5781l23.8827 14.0625c.961.5625 1.7578.8672 2.6954.8672zm-1.0078-4.336c-.1641 0-.3516-.0703-.586-.2109l-22.2656-13.2188c-.3281-.1874-.5156-.3515-.5156-.6562 0-.3281.1875-.4687.5156-.6563l22.2656-13.2187c.2344-.1406.4219-.2109.586-.2109.3281 0 .6328.2343.6328.7031v26.7656c0 .4688-.3047.7031-.6328.7031z"/></svg>